<svg width="1500" height="400" xmlns="http://www.w3.org/2000/svg" clip-rule="evenodd" version="1.1">

 <g>
  <title>Layer 1</title>
  <g id="svg_1">
   <path id="svg_2" opacity="0.973" d="m644.5,105.5c247.123,-6.2352 488.79,26.931 725,99.5c22.55,6.271 29.05,20.104 19.5,41.5c-6.89,7.518 -15.39,10.351 -25.5,8.5c-315.07,-111.529 -638.904,-150.363 -971.5,-116.5c-1.981,-0.129 -3.647,-0.796 -5,-2c-0.777,-2.929 -0.61,-5.763 0.5,-8.5c85.422,-12.09 171.088,-19.59 257,-22.5z" fill="#23366c"/>
  </g>
  <g id="svg_3">
   <path id="svg_4" opacity="0.973" d="m615.5,165.5c248.763,-6.651 489.76,33.183 723,119.5c0.46,0.414 0.79,0.914 1,1.5c-0.85,3.409 -2.35,6.409 -4.5,9c-397.205,-105.29 -797.539,-118.957 -1201,-41c-0.833,-0.333 -1.667,-0.667 -2.5,-1c-1.59,-3.139 -1.924,-6.305 -1,-9.5c158.392,-47.177 320.059,-73.344 485,-78.5z" fill="#106e29"/>
  </g>
  <g id="svg_5">
   <path id="svg_6" opacity="0.972" d="m564.5,239.5c186.379,-3.696 370.379,15.304 552,57c0.69,3.27 0.69,6.603 0,10c-248.253,-46.105 -497.253,-50.605 -747,-13.5c-77.531,11.883 -154.197,27.883 -230,48c-24.18,4.154 -35.347,-6.013 -33.5,-30.5c3.537,-10.197 10.704,-16.03 21.5,-17.5c144.098,-31.888 289.765,-49.721 437,-53.5z" fill="#eec82a"/>
  </g>
 </g>
</svg>